<svg width="101" height="100" viewBox="0 0 101 100" fill="none" xmlns="http://www.w3.org/2000/svg">
<path d="M49.7188 7.8125L72.375 48.4375L27.0625 48.4375L49.7188 7.8125Z" fill="#181716"/>
<path d="M82.5313 29.6875L94.25 48.4375L70.8125 48.4375L82.5313 29.6875Z" fill="#181716"/>
<path d="M16.9063 29.6875L28.625 48.4375L5.1875 48.4375L16.9063 29.6875Z" fill="#181716"/>
<path fill-rule="evenodd" clip-rule="evenodd" d="M94.25 53.125H5.1875V79.6875H94.25V53.125ZM49.7588 59.4143L42.7668 66.4062L49.7588 73.3982L56.7508 66.4062L49.7588 59.4143ZM72.375 66.4062L77.883 60.8982L83.3911 66.4062L77.883 71.9143L72.375 66.4062ZM21.633 60.8982L16.125 66.4062L21.633 71.9143L27.1411 66.4062L21.633 60.8982Z" fill="#181716"/>
</svg>
