<svg width="101" height="100" viewBox="0 0 101 100" fill="none" xmlns="http://www.w3.org/2000/svg">
<path d="M44.9583 12H75.4167C78.7304 12 81.4167 14.6863 81.4167 18V66.1667H50.9583C47.6446 66.1667 44.9583 63.4804 44.9583 60.1667V12Z" fill="#181716"/>
<path d="M44.9583 12C40.9312 12 37.6667 15.2646 37.6667 19.2917H52.25C52.25 15.2646 48.9854 12 44.9583 12Z" fill="#181716"/>
<path d="M81.4167 66.1666C83.1425 66.1666 84.5417 64.7675 84.5417 63.0416L78.2917 63.0416C78.2917 64.7675 79.6908 66.1666 81.4167 66.1666Z" fill="#181716"/>
<path fill-rule="evenodd" clip-rule="evenodd" d="M55.4971 39.4766H58.4543V42.6192C60.9357 43.1205 62.688 45.4786 62.688 48.1199H60.133C60.133 46.3264 58.8321 45.0764 57.4676 45.0764H55.8315C54.8262 45.0764 53.8164 46.0073 53.8164 47.4071C53.8164 48.7493 54.7536 49.6755 55.7265 49.7347L58.3782 49.8962C60.895 50.0494 62.688 52.2862 62.688 54.7741C62.688 57.2484 60.913 59.4611 58.4543 59.6472V62.1637H55.4971V59.5624C53.0146 59.062 51.2614 56.7033 51.2614 54.0613H53.8164C53.8164 55.8548 55.1173 57.1048 56.4818 57.1048H58.118C59.1233 57.1048 60.133 56.1739 60.133 54.7741C60.133 53.4319 59.1958 52.5057 58.223 52.4465L55.5712 52.285C53.0545 52.1318 51.2614 49.895 51.2614 47.4071C51.2614 44.9322 53.0373 42.719 55.4971 42.5339V39.4766Z" fill="white"/>
<rect x="51.2083" y="22.9589" width="22.9167" height="5.47945" fill="white"/>
<rect x="51.2086" y="30.918" width="18.75" height="5.47945" fill="white"/>
<path fill-rule="evenodd" clip-rule="evenodd" d="M6.98462 76.678L93.3483 76.678L93.3483 22.1326L6.98463 22.1326L6.98462 76.678ZM13.1663 69.8601L85.8935 69.8601V28.951L83.5303 28.951V22.1328L40.5303 22.1328V28.951L13.1663 28.951L13.1663 69.8601Z" fill="#181716"/>
<path fill-rule="evenodd" clip-rule="evenodd" d="M43.7361 78.9508H0.166656V80.0417C0.166656 84.46 3.74838 88.0417 8.16665 88.0417H92.1667C96.5849 88.0417 100.167 84.46 100.167 80.0417V78.9508H56.5963C55.6602 81.5988 53.1348 83.496 50.1662 83.496C47.1976 83.496 44.6721 81.5988 43.7361 78.9508Z" fill="#181716"/>
<rect x="16.9987" y="38" width="22" height="4" fill="#181716"/>
<rect x="22.9987" y="45" width="16" height="4" fill="#181716"/>
<rect x="16.9987" y="45" width="4" height="4" fill="#181716"/>
<rect x="22.9987" y="52" width="16" height="4" fill="#181716"/>
<rect x="16.9987" y="52" width="4" height="4" fill="#181716"/>
<rect x="22.9987" y="59" width="16" height="4" fill="#181716"/>
<rect x="16.9987" y="59" width="4" height="4" fill="#181716"/>
</svg>
