<svg width="101" height="100" viewBox="0 0 101 100" fill="none" xmlns="http://www.w3.org/2000/svg">
<path fill-rule="evenodd" clip-rule="evenodd" d="M13.3334 72L89.3334 72V51H83.3334V66L19.3334 66L19.3334 30L58.3334 30V24H13.3334L13.3334 72Z" fill="#181716"/>
<path fill-rule="evenodd" clip-rule="evenodd" d="M45.6748 74H7.33337C7.33337 78.4183 10.9151 82 15.3334 82H87.3334C91.7516 82 95.3334 78.4183 95.3334 74H56.992C56.1683 76.3304 53.9458 78 51.3334 78C48.7209 78 46.4985 76.3304 45.6748 74Z" fill="#181716"/>
<path d="M40.6849 54.3951C40.6849 45.8311 47.6274 38.8887 56.1913 38.8887" stroke="#181716" stroke-width="3"/>
<path d="M83.3931 12.3498C83.3931 12.3498 82.9328 12.4812 82.1767 12.7112C82.0451 12.284 81.8479 11.7912 81.5849 11.2654C80.73 9.62249 79.4478 8.7353 77.9354 8.7353C77.8368 8.7353 77.7381 8.7353 77.6066 8.76816C77.5738 8.70244 77.508 8.66958 77.4751 8.60387C76.8176 7.88097 75.9627 7.55239 74.9435 7.58525C72.9709 7.65096 70.9982 9.06389 69.42 11.594C68.3022 13.3684 67.4474 15.6028 67.2172 17.3443C64.9487 18.0343 63.3705 18.5272 63.3376 18.5601C62.1869 18.9215 62.154 18.9544 62.0225 20.0387C61.8253 20.8602 58.8334 44.0256 58.8334 44.0256L83.689 48.33V12.284C83.5575 12.3169 83.4589 12.3169 83.3931 12.3498ZM77.6395 14.1241C76.3244 14.5184 74.8778 14.9785 73.464 15.4056C73.8586 13.8613 74.6476 12.3169 75.5682 11.2983C75.9299 10.9368 76.423 10.5097 76.982 10.2468C77.5409 11.4297 77.6724 13.0398 77.6395 14.1241ZM74.9764 8.89959C75.4367 8.89959 75.8312 8.99817 76.16 9.19532C75.634 9.45819 75.1079 9.88535 74.6147 10.3782C73.3654 11.7254 72.4119 13.8284 72.0174 15.8328C70.8338 16.1942 69.6502 16.5557 68.5652 16.8843C69.2557 13.7627 71.9188 8.99817 74.9764 8.89959ZM71.1297 26.9719C71.2612 29.0748 76.8176 29.5349 77.1463 34.4965C77.3765 38.4067 75.075 41.0683 71.7544 41.2654C67.7433 41.5283 65.5405 39.1625 65.5405 39.1625L66.3953 35.548C66.3953 35.548 68.5981 37.2238 70.3735 37.0924C71.5242 37.0266 71.9516 36.0737 71.9188 35.4166C71.7544 32.6564 67.2172 32.8207 66.9213 28.2862C66.6583 24.5075 69.157 20.663 74.6805 20.3016C76.8176 20.1701 77.9025 20.6959 77.9025 20.6959L76.6532 25.4275C76.6532 25.4275 75.2394 24.7703 73.5627 24.9018C71.1297 25.0661 71.0968 26.6104 71.1297 26.9719ZM78.9546 13.7298C78.9546 12.7441 78.8231 11.3311 78.3628 10.1482C79.8752 10.444 80.5985 12.1197 80.9273 13.1384C80.3355 13.3027 79.6779 13.4998 78.9546 13.7298Z" fill="black"/>
<path d="M84.5097 48.1987L94.8334 45.6357C94.8334 45.6357 90.3948 15.6358 90.362 15.4386C90.3291 15.2414 90.1647 15.11 90.0003 15.11C89.8359 15.11 86.9427 15.0443 86.9427 15.0443C86.9427 15.0443 85.1673 13.3356 84.5097 12.6785V48.1987Z" fill="black"/>
</svg>
