<svg width="144" height="44" viewBox="0 0 144 44" fill="none" xmlns="http://www.w3.org/2000/svg">
<path fill-rule="evenodd" clip-rule="evenodd" d="M14.4425 7.7477C14.4473 1.66994 21.7989 -1.39438 26.1438 2.87029C30.5253 7.17088 27.4724 14.6029 21.3228 14.6064L18.5503 14.608L18.5473 18.3227L22.3852 18.3228L22.3852 22.4223L18.544 22.4223L18.5399 27.5604C18.5329 36.3573 7.35457 40.1588 1.95357 33.2011C-2.75554 27.1347 1.58284 18.3227 9.27861 18.3227H14.434L14.437 14.6104L10.4084 14.6128L10.406 10.5133L14.4403 10.5109L14.4425 7.7477ZM18.5536 10.5085L21.3204 10.5069C23.7914 10.5055 25.0181 7.5192 23.2576 5.79115C21.5117 4.07753 18.5577 5.30883 18.5558 7.75097L18.5536 10.5085ZM14.4307 22.4223H9.27861C5.00083 22.4223 2.58929 27.3205 5.2069 30.6926C8.20912 34.5601 14.4227 32.4469 14.4266 27.5571L14.4307 22.4223Z" fill="white"/>
<path d="M25.0305 36.5071V18.2069H29.695V36.5071H25.0305Z" fill="white"/>
<path d="M32.6975 36.5071V18.2069H37.288V20.6051H37.9543C38.2505 19.9656 38.8058 19.3629 39.6202 18.7972C40.4347 18.2069 41.6687 17.9117 43.3222 17.9117C44.7537 17.9117 46 18.2438 47.0612 18.9079C48.1471 19.5474 48.9863 20.4452 49.5786 21.6013C50.1709 22.7327 50.467 24.061 50.467 25.586V36.5071H45.8025V25.955C45.8025 24.5775 45.457 23.5445 44.766 22.8557C44.0996 22.167 43.1371 21.8227 41.8784 21.8227C40.447 21.8227 39.3364 22.3023 38.5467 23.2616C37.7569 24.1963 37.362 25.5122 37.362 27.2094V36.5071H32.6975Z" fill="white"/>
<path d="M59.7298 37.0236C58.4218 37.0236 57.2495 36.8023 56.2129 36.3595C55.1764 35.8922 54.3496 35.2281 53.7326 34.3672C53.1403 33.4817 52.8441 32.4117 52.8441 31.1572C52.8441 29.9028 53.1403 28.8574 53.7326 28.0211C54.3496 27.1602 55.1887 26.5207 56.2499 26.1025C57.3359 25.6598 58.5698 25.4384 59.9519 25.4384H64.9866V24.4053C64.9866 23.5445 64.7151 22.8434 64.1722 22.3023C63.6292 21.7366 62.7654 21.4537 61.5808 21.4537C60.4208 21.4537 59.557 21.7243 58.9894 22.2654C58.4218 22.7819 58.0516 23.4584 57.8788 24.2947L53.5845 22.8557C53.8807 21.921 54.3496 21.0724 54.9913 20.3099C55.6576 19.5228 56.5338 18.8956 57.6197 18.4283C58.7303 17.9363 60.0753 17.6903 61.6548 17.6903C64.0735 17.6903 65.9861 18.293 67.3929 19.4982C68.7997 20.7035 69.503 22.4499 69.503 24.7374V31.5631C69.503 32.301 69.8485 32.67 70.5396 32.67H72.0204V36.5071H68.9107C67.9976 36.5071 67.2448 36.2857 66.6525 35.843C66.0602 35.4002 65.764 34.8099 65.764 34.072V34.0351H65.0607C64.9619 34.3303 64.7398 34.7238 64.3943 35.2158C64.0488 35.6831 63.5058 36.1013 62.7654 36.4702C62.025 36.8392 61.0132 37.0236 59.7298 37.0236ZM60.5442 33.2603C61.8523 33.2603 62.9135 32.9036 63.7279 32.1903C64.5671 31.4524 64.9866 30.4808 64.9866 29.2756V28.9066H60.2851C59.4213 28.9066 58.7426 29.0911 58.249 29.46C57.7554 29.829 57.5086 30.3455 57.5086 31.0097C57.5086 31.6738 57.7677 32.2149 58.286 32.6331C58.8043 33.0512 59.557 33.2603 60.5442 33.2603Z" fill="white"/>
<path d="M73.95 36.5071V10.6802H78.6145V36.5071H73.95Z" fill="white"/>
<path d="M91.0393 37.0236C89.213 37.0236 87.5718 36.6547 86.1157 35.9168C84.6595 35.1789 83.5119 34.1089 82.6728 32.7069C81.8337 31.3048 81.4142 29.6199 81.4142 27.6522V27.0618C81.4142 25.0941 81.8337 23.4092 82.6728 22.0071C83.5119 20.6051 84.6595 19.5351 86.1157 18.7972C87.5718 18.0593 89.213 17.6903 91.0393 17.6903C92.8656 17.6903 94.5068 18.0593 95.9629 18.7972C97.4191 19.5351 98.5667 20.6051 99.4058 22.0071C100.245 23.4092 100.664 25.0941 100.664 27.0618V27.6522C100.664 29.6199 100.245 31.3048 99.4058 32.7069C98.5667 34.1089 97.4191 35.1789 95.9629 35.9168C94.5068 36.6547 92.8656 37.0236 91.0393 37.0236ZM91.0393 32.8913C92.4707 32.8913 93.6554 32.4363 94.5932 31.5262C95.531 30.5915 96 29.2633 96 27.5415V27.1725C96 25.4507 95.531 24.1348 94.5932 23.2247C93.68 22.29 92.4954 21.8227 91.0393 21.8227C89.6079 21.8227 88.4232 22.29 87.4854 23.2247C86.5476 24.1348 86.0787 25.4507 86.0787 27.1725V27.5415C86.0787 29.2633 86.5476 30.5915 87.4854 31.5262C88.4232 32.4363 89.6079 32.8913 91.0393 32.8913Z" fill="white"/>
<path d="M112.226 37.0236C110.4 37.0236 108.758 36.6547 107.302 35.9168C105.846 35.1789 104.699 34.1089 103.859 32.7069C103.02 31.3048 102.601 29.6199 102.601 27.6522V27.0618C102.601 25.0941 103.02 23.4092 103.859 22.0071C104.699 20.6051 105.846 19.5351 107.302 18.7972C108.758 18.0593 110.4 17.6903 112.226 17.6903C114.052 17.6903 115.693 18.0593 117.15 18.7972C118.606 19.5351 119.753 20.6051 120.592 22.0071C121.432 23.4092 121.851 25.0941 121.851 27.0618V27.6522C121.851 29.6199 121.432 31.3048 120.592 32.7069C119.753 34.1089 118.606 35.1789 117.15 35.9168C115.693 36.6547 114.052 37.0236 112.226 37.0236ZM112.226 32.8913C113.657 32.8913 114.842 32.4363 115.78 31.5262C116.718 30.5915 117.187 29.2633 117.187 27.5415V27.1725C117.187 25.4507 116.718 24.1348 115.78 23.2247C114.867 22.29 113.682 21.8227 112.226 21.8227C110.794 21.8227 109.61 22.29 108.672 23.2247C107.734 24.1348 107.265 25.4507 107.265 27.1725V27.5415C107.265 29.2633 107.734 30.5915 108.672 31.5262C109.61 32.4363 110.794 32.8913 112.226 32.8913Z" fill="white"/>
<path d="M124.676 43.8862V18.2069H129.266V20.4206H129.933C130.352 19.7073 131.006 19.0801 131.895 18.5389C132.783 17.9732 134.054 17.6903 135.708 17.6903C137.189 17.6903 138.558 18.0593 139.817 18.7972C141.076 19.5105 142.087 20.5682 142.853 21.9702C143.618 23.3723 144 25.0695 144 27.0618V27.6522C144 29.6445 143.618 31.3417 142.853 32.7438C142.087 34.1458 141.076 35.2158 139.817 35.9537C138.558 36.667 137.189 37.0236 135.708 37.0236C134.597 37.0236 133.659 36.8884 132.894 36.6178C132.154 36.3718 131.549 36.0521 131.08 35.6585C130.636 35.2404 130.278 34.8222 130.007 34.4041H129.34V43.8862H124.676ZM134.301 32.9651C135.757 32.9651 136.954 32.5101 137.892 31.6C138.854 30.6653 139.336 29.3125 139.336 27.5415V27.1725C139.336 25.4015 138.854 24.061 137.892 23.1509C136.929 22.2162 135.732 21.7489 134.301 21.7489C132.87 21.7489 131.673 22.2162 130.71 23.1509C129.748 24.061 129.266 25.4015 129.266 27.1725V27.5415C129.266 29.3125 129.748 30.6653 130.71 31.6C131.673 32.5101 132.87 32.9651 134.301 32.9651Z" fill="white"/>
</svg>
