<svg width="102" height="30" viewBox="0 0 102 30" fill="none" xmlns="http://www.w3.org/2000/svg">
<path fill-rule="evenodd" clip-rule="evenodd" d="M10.2301 4.78707C10.2335 0.546771 15.4409 -1.59112 18.5185 1.38423C21.6221 4.38464 19.4596 9.56975 15.1036 9.57223L13.1398 9.57335L13.1377 12.165L15.8562 12.165L15.8562 15.0251L13.1353 15.0251L13.1324 18.6099C13.1274 24.7472 5.20947 27.3994 1.38377 22.5452C-1.95185 18.3129 1.12117 12.165 6.57233 12.165H10.2241L10.2262 9.57502L7.3726 9.57665L7.3709 6.71652L10.2285 6.71489L10.2301 4.78707ZM13.1421 6.71323L15.1019 6.71211C16.8522 6.71111 17.7212 4.62765 16.4741 3.42203C15.2374 2.22649 13.145 3.08553 13.1436 4.78935L13.1421 6.71323ZM10.2217 15.0251H6.57233C3.54224 15.0251 1.83407 18.4425 3.68821 20.7951C5.81478 23.4934 10.2161 22.0191 10.2188 18.6076L10.2217 15.0251Z" fill="#181716"/>
<path d="M17.7299 24.8518V12.0842H21.0339V24.8518H17.7299Z" fill="#181716"/>
<path d="M23.1607 24.8518V12.0842H26.4123V13.7573H26.8843C27.0941 13.3112 27.4874 12.8907 28.0643 12.496C28.6412 12.0842 29.5153 11.8782 30.6865 11.8782C31.7005 11.8782 32.5833 12.1099 33.335 12.5733C34.1042 13.0194 34.6985 13.6458 35.1181 14.4524C35.5377 15.2418 35.7474 16.1684 35.7474 17.2324V24.8518H32.4434V17.4898C32.4434 16.5288 32.1987 15.8081 31.7092 15.3276C31.2372 14.8471 30.5554 14.6068 29.6639 14.6068C28.6499 14.6068 27.8633 14.9414 27.3038 15.6107C26.7444 16.2628 26.4647 17.1809 26.4647 18.365V24.8518H23.1607Z" fill="#181716"/>
<path d="M42.3086 25.2121C41.382 25.2121 40.5517 25.0577 39.8174 24.7488C39.0832 24.4228 38.4976 23.9594 38.0605 23.3588C37.641 22.741 37.4312 21.9945 37.4312 21.1193C37.4312 20.2441 37.641 19.5148 38.0605 18.9313C38.4976 18.3307 39.0919 17.8845 39.8437 17.5928C40.6128 17.2839 41.4869 17.1294 42.4659 17.1294H46.0321V16.4087C46.0321 15.8081 45.8398 15.319 45.4552 14.9414C45.0706 14.5467 44.4588 14.3494 43.6197 14.3494C42.798 14.3494 42.1862 14.5382 41.7841 14.9157C41.382 15.2761 41.1198 15.748 40.9974 16.3315L37.9556 15.3276C38.1654 14.6755 38.4976 14.0834 38.9521 13.5514C39.4241 13.0023 40.0447 12.5647 40.8139 12.2386C41.6005 11.8954 42.5533 11.7238 43.6721 11.7238C45.3853 11.7238 46.7401 12.1442 47.7366 12.9851C48.733 13.826 49.2312 15.0444 49.2312 16.6404V21.4025C49.2312 21.9173 49.476 22.1747 49.9655 22.1747H51.0144V24.8518H48.8117C48.1649 24.8518 47.6317 24.6973 47.2121 24.3884C46.7926 24.0795 46.5828 23.6677 46.5828 23.1529V23.1271H46.0846C46.0146 23.333 45.8573 23.6076 45.6126 23.9508C45.3678 24.2769 44.9832 24.5686 44.4588 24.826C43.9343 25.0834 43.2176 25.2121 42.3086 25.2121ZM42.8854 22.5866C43.812 22.5866 44.5637 22.3377 45.1406 21.8401C45.7349 21.3252 46.0321 20.6474 46.0321 19.8065V19.5491H42.7019C42.09 19.5491 41.6093 19.6778 41.2597 19.9352C40.91 20.1926 40.7352 20.553 40.7352 21.0163C40.7352 21.4797 40.9188 21.8572 41.2859 22.149C41.653 22.4407 42.1862 22.5866 42.8854 22.5866Z" fill="#181716"/>
<path d="M52.3812 24.8518V6.83299H55.6852V24.8518H52.3812Z" fill="#181716"/>
<path d="M64.4861 25.2121C63.1925 25.2121 62.0299 24.9547 60.9985 24.4399C59.9671 23.9251 59.1542 23.1786 58.5598 22.2004C57.9655 21.2223 57.6683 20.0468 57.6683 18.6739V18.262C57.6683 16.8892 57.9655 15.7137 58.5598 14.7355C59.1542 13.7573 59.9671 13.0109 60.9985 12.496C62.0299 11.9812 63.1925 11.7238 64.4861 11.7238C65.7797 11.7238 66.9422 11.9812 67.9737 12.496C69.0051 13.0109 69.818 13.7573 70.4123 14.7355C71.0067 15.7137 71.3039 16.8892 71.3039 18.262V18.6739C71.3039 20.0468 71.0067 21.2223 70.4123 22.2004C69.818 23.1786 69.0051 23.9251 67.9737 24.4399C66.9422 24.9547 65.7797 25.2121 64.4861 25.2121ZM64.4861 22.3291C65.5 22.3291 66.3391 22.0117 67.0034 21.3767C67.6677 20.7246 67.9999 19.7979 67.9999 18.5967V18.3393C67.9999 17.138 67.6677 16.2199 67.0034 15.585C66.3566 14.9329 65.5175 14.6068 64.4861 14.6068C63.4722 14.6068 62.633 14.9329 61.9687 15.585C61.3044 16.2199 60.9723 17.138 60.9723 18.3393V18.5967C60.9723 19.7979 61.3044 20.7246 61.9687 21.3767C62.633 22.0117 63.4722 22.3291 64.4861 22.3291Z" fill="#181716"/>
<path d="M79.4933 25.2121C78.1996 25.2121 77.0371 24.9547 76.0057 24.4399C74.9743 23.9251 74.1614 23.1786 73.567 22.2004C72.9726 21.2223 72.6754 20.0468 72.6754 18.6739V18.262C72.6754 16.8892 72.9726 15.7137 73.567 14.7355C74.1614 13.7573 74.9743 13.0109 76.0057 12.496C77.0371 11.9812 78.1996 11.7238 79.4933 11.7238C80.7869 11.7238 81.9494 11.9812 82.9808 12.496C84.0122 13.0109 84.8251 13.7573 85.4195 14.7355C86.0139 15.7137 86.3111 16.8892 86.3111 18.262V18.6739C86.3111 20.0468 86.0139 21.2223 85.4195 22.2004C84.8251 23.1786 84.0122 23.9251 82.9808 24.4399C81.9494 24.9547 80.7869 25.2121 79.4933 25.2121ZM79.4933 22.3291C80.5072 22.3291 81.3463 22.0117 82.0106 21.3767C82.6749 20.7246 83.007 19.7979 83.007 18.5967V18.3393C83.007 17.138 82.6749 16.2199 82.0106 15.585C81.3638 14.9329 80.5247 14.6068 79.4933 14.6068C78.4793 14.6068 77.6402 14.9329 76.9759 15.585C76.3116 16.2199 75.9795 17.138 75.9795 18.3393V18.5967C75.9795 19.7979 76.3116 20.7246 76.9759 21.3767C77.6402 22.0117 78.4793 22.3291 79.4933 22.3291Z" fill="#181716"/>
<path d="M88.3119 30V12.0842H91.5635V13.6286H92.0355C92.3327 13.131 92.796 12.6934 93.4253 12.3158C94.0546 11.9211 94.9549 11.7238 96.1262 11.7238C97.1751 11.7238 98.1453 11.9812 99.0369 12.496C99.9284 12.9937 100.645 13.7316 101.187 14.7098C101.729 15.6879 102 16.872 102 18.262V18.6739C102 20.0639 101.729 21.248 101.187 22.2262C100.645 23.2043 99.9284 23.9508 99.0369 24.4657C98.1453 24.9633 97.1751 25.2121 96.1262 25.2121C95.3395 25.2121 94.6752 25.1178 94.1333 24.929C93.6089 24.7574 93.1805 24.5343 92.8484 24.2597C92.5337 23.968 92.2803 23.6763 92.088 23.3845H91.616V30H88.3119ZM95.1297 22.3806C96.1612 22.3806 97.009 22.0632 97.6733 21.4282C98.3551 20.7761 98.696 19.8323 98.696 18.5967V18.3393C98.696 17.1037 98.3551 16.1684 97.6733 15.5335C96.9915 14.8814 96.1437 14.5553 95.1297 14.5553C94.1158 14.5553 93.268 14.8814 92.5862 15.5335C91.9044 16.1684 91.5635 17.1037 91.5635 18.3393V18.5967C91.5635 19.8323 91.9044 20.7761 92.5862 21.4282C93.268 22.0632 94.1158 22.3806 95.1297 22.3806Z" fill="#181716"/>
</svg>
